<?xml version="1.0" encoding="UTF-8"?>
<svg version="1.1" xmlns="http://www.w3.org/2000/svg" width="48" height="48">
<path d="M0 0 C15.84 0 31.68 0 48 0 C48 15.84 48 31.68 48 48 C32.16 48 16.32 48 0 48 C0 32.16 0 16.32 0 0 Z " fill="#020202" transform="translate(0,0)"/>
<path d="M0 0 C3.2029892 1.20189537 5.29148039 2.85849619 7.125 5.8125 C6.9170801 9.45109819 4.93281427 11.95435328 3 15 C2.67 15 2.34 15 2 15 C2 12.69 2 10.38 2 8 C0.02 8 -1.96 8 -4 8 C-4.268125 8.763125 -4.53625 9.52625 -4.8125 10.3125 C-5.94424112 12.87380884 -6.91223401 14.19692938 -9 16 C-9 13.36 -9 10.72 -9 8 C-10.65 8 -12.3 8 -14 8 C-14 12.29 -14 16.58 -14 21 C-8.09455022 19.69928437 -8.09455022 19.69928437 -6.1875 16.375 C-5.795625 15.59125 -5.40375 14.8075 -5 14 C-4.67 14 -4.34 14 -4 14 C-4 16.64 -4 19.28 -4 22 C-1.15515966 21.72843114 -1.15515966 21.72843114 2 20 C3.82624211 17.46425234 5.31727628 14.86614946 6.80078125 12.1171875 C7.19652344 11.41851562 7.59226562 10.71984375 8 10 C8.33 10 8.66 10 9 10 C9.45024551 16.41599858 8.88144406 19.7906935 5 25 C0.51468832 28.16010596 -3.67334805 28.76703788 -9 28 C-12.73644125 26.70661649 -14.65541418 25.36272191 -17.375 22.5 C-19.64728575 17.60584608 -19.93059259 13.30753232 -19 8 C-14.83875399 -0.02072228 -8.23489287 -0.96328276 0 0 Z " fill="#EFEFEF" transform="translate(29,10)"/>
<path d="M0 0 C1.65 0 3.3 0 5 0 C5.33 2.31 5.66 4.62 6 7 C7.32 4.69 8.64 2.38 10 0 C11.98 0 13.96 0 16 0 C16.33 1.98 16.66 3.96 17 6 C17.99 4.02 18.98 2.04 20 0 C20.66 0.99 21.32 1.98 22 3 C21.02262231 4.64689635 20.0430468 6.29248854 19.0625 7.9375 C18.24458984 9.31228516 18.24458984 9.31228516 17.41015625 10.71484375 C16 13 16 13 15 14 C13.33382885 14.04063832 11.66611905 14.042721 10 14 C9.67 11.69 9.34 9.38 9 7 C8.443125 7.99 7.88625 8.98 7.3125 10 C6.1678125 11.485 6.1678125 11.485 5 13 C3.35 13 1.7 13 0 13 C0 8.71 0 4.42 0 0 Z " fill="#040404" transform="translate(15,18)"/>
<path d="M0 0 C1.32 0 2.64 0 4 0 C4 2.64 4 5.28 4 8 C4.66 8 5.32 8 6 8 C5.67 9.32 5.34 10.64 5 12 C3.35 12 1.7 12 0 12 C0 8.04 0 4.08 0 0 Z " fill="#010101" transform="translate(15,19)"/>
<path d="M0 0 C1.65 0 3.3 0 5 0 C5.33 2.31 5.66 4.62 6 7 C6.99 5.68 7.98 4.36 9 3 C9 3.66 9 4.32 9 5 C9.66 5 10.32 5 11 5 C11 7.64 11 10.28 11 13 C12.32 13.33 13.64 13.66 15 14 C13.35 14 11.7 14 10 14 C9.67 11.69 9.34 9.38 9 7 C8.01 8.32 7.02 9.64 6 11 C6 10.34 6 9.68 6 9 C5.34 9 4.68 9 4 9 C4 6.36 4 3.72 4 1 C2.68 0.67 1.36 0.34 0 0 Z " fill="#404040" transform="translate(15,18)"/>
<path d="M0 0 C1.98 0 3.96 0 6 0 C6.33 1.98 6.66 3.96 7 6 C7.99 4.02 8.98 2.04 10 0 C10.66 0.99 11.32 1.98 12 3 C10.68 5.31 9.36 7.62 8 10 C7.01 9.67 6.02 9.34 5 9 C5 6.36 5 3.72 5 1 C3.35 1 1.7 1 0 1 C0 0.67 0 0.34 0 0 Z " fill="#464646" transform="translate(25,18)"/>
</svg>
